<?xml version="1.0" encoding="utf-8"?>
<!-- Generator: Adobe Illustrator 18.1.1, SVG Export Plug-In . SVG Version: 6.00 Build 0)  -->
<svg version="1.1" id="Lager_1" xmlns="http://www.w3.org/2000/svg" xmlns:xlink="http://www.w3.org/1999/xlink" x="0px" y="0px"
	 viewBox="0 0 255.7 46" enable-background="new 0 0 255.7 46" xml:space="preserve">

<g>
	<path fill="#0046AD" d="M7.9,16.8l1.1-3h3.7c0,0-2.7-8-2.9-8.7h0C9.6,5.9,3.5,22.5,3.5,22.5H0L8.6,0.1h2.5L20,22.5h-3.8l-2.2-5.7
		L7.9,16.8L7.9,16.8z"/>
	<path fill="#0046AD" d="M27.3,22.5h-3.6V0.1h5.6c5.6,0,7.8,2.8,7.8,6.3c0,3.1-2,5-4.2,5.9v0c0.9,0.5,3.3,4.5,6.8,10.2h-4.1
		c-3.5-5.8-5.2-8.8-6.1-9.1l0-2.8c2.3,0,4-1.8,4-3.9c0-1.9-1.2-3.5-4.1-3.5h-2.1L27.3,22.5L27.3,22.5z"/>
	<path fill="#0046AD" d="M40.4,28.6c-0.8,0-2-0.2-2.7-0.4l0.7-2.8c0.6,0.2,1.4,0.3,2,0.3c2.3,0,2.7-1.8,2.7-4.5v-21h3.5v21.5
		C46.6,25.8,45.2,28.6,40.4,28.6L40.4,28.6z"/>
	<path fill="#0046AD" d="M62.2,3.1c-4.5,0-7.5,3.2-7.5,8.4c0,5.2,3,8.4,7.5,8.4c4.5,0,7.5-3.2,7.5-8.4C69.7,6.5,66.9,3.1,62.2,3.1
		L62.2,3.1z M54.1,3.3c2-2,4.8-3.3,8.1-3.3c3.5,0,6.5,1.3,8.5,3.5c1.8,2,2.8,4.8,2.8,7.9c0,3.4-1.2,6.3-3.2,8.3
		c-2,2-4.8,3.1-8.1,3.1c-3.1,0-5.8-1-7.8-2.7c-2.2-2.1-3.5-5.1-3.5-8.6C50.9,8.2,52,5.3,54.1,3.3L54.1,3.3z"/>
</g>
<rect x="193.4" y="9.6" fill="#787878" width="5.1" height="3.1"/>
<g>
	<path fill="#787878" d="M81.3,22.5h-3.5V0.1h3.5V22.5z M83.4,9.9h10.3V0.1H97v22.4h-3.4v-9.8H83.4V9.9z"/>
	<path fill="#787878" d="M239.9,22.5h-3.5V0.1h3.5V22.5z M241.9,9.9h10.3V0.1h3.4v22.4h-3.4v-9.8h-10.3V9.9z"/>
	<g>
		<path fill="#787878" d="M173.8,19.5h9.8v3.1h-13.3V0.1h3.5V19.5z"/>
	</g>
	<path fill="#787878" d="M223,22.8c-6.8,0-11.2-4.8-11.2-11.2c0-6.7,4.8-11.6,12.1-11.6c2.8,0,5,0.6,6.5,1.3l0,3.4
		c-1.6-0.8-3.8-1.7-6.2-1.7c-5.8,0-8.5,3.7-8.5,8.3c0,5,3.1,8.5,8.3,8.5c1.7,0,2.9-0.3,3.8-0.7v-6.5h-2.5v-3h6.1v11.3
		C229.4,21.8,226.5,22.8,223,22.8"/>
	<polyline fill="#787878" points="191.2,19.5 199.6,19.5 199.6,22.5 187.6,22.5 187.6,0.1 199.5,0.1 198.5,3.2 191.2,3.2 
		191.2,19.5 	"/>
	<rect x="204.6" y="0.1" fill="#787878" width="3.6" height="22.4"/>
	<path fill="#787878" d="M141.5,22.5L131,8.8c-1.1-1.4-1.7-2.3-2.2-3.2h-0.1c0.1,0.7,0.1,1.8,0.1,2.9v14.1h-3.5V0.1h3.6l10.1,13.3
		c1.2,1.6,1.8,2.4,2.3,3.4h0.1c0-0.9-0.1-2-0.1-3.1V0.1h3.6v22.4H141.5"/>
	<path fill="#787878" d="M117.9,20.4c-1.5,1.5-3.7,2.4-6.9,2.4c-3,0-5.2-0.8-6.6-2.1c-1.7-1.6-2.2-4-2.2-6.3V0.1h3.5v14
		c0,1.6,0.4,3.1,1.4,4.1c0.8,0.9,2.1,1.5,3.9,1.5c2,0,3.3-0.5,4.2-1.5c0.9-0.9,1.3-2.3,1.3-3.9V0.1h3.6v14.2
		C120,16.8,119.3,18.9,117.9,20.4"/>
	<polygon fill="#787878" points="165.5,3.2 159.4,3.2 159.4,22.5 155.8,22.5 155.8,3.2 149.3,3.2 149.3,0.1 166.5,0.1 	"/>
</g>
<path fill="#787878" d="M217.4,40.7L217.4,40.7c1.1-0.5,2.2-1.5,2.2-3c0-1.8-1.1-3.2-4-3.2h-2.9v11.4h1.8V36h1
	c1.5,0,2.1,0.8,2.1,1.8c0,1.1-0.9,2-2.1,2l0,1.4c0.5,0.1,1.2,1.5,3.1,4.6h2.1C219,42.8,217.9,40.9,217.4,40.7z M227.7,34.3
	c-1.7,0-3.1,0.6-4.1,1.7c-1,1.1-1.6,2.6-1.6,4.3c0,1.8,0.7,3.3,1.8,4.4c1,0.9,2.4,1.4,4,1.4c1.7,0,3.1-0.6,4.1-1.6
	c1.1-1,1.6-2.6,1.6-4.3c0-1.6-0.5-3-1.4-4.1C231,35,229.5,34.3,227.7,34.3z M227.7,44.5c-2.3,0-3.9-1.6-3.9-4.3
	c0-2.7,1.5-4.3,3.9-4.3c2.4,0,3.8,1.7,3.8,4.3C231.5,42.8,230,44.5,227.7,44.5z M206.3,40.8h1.3v3.3c-0.4,0.2-1.1,0.4-1.9,0.4
	c-2.6,0-4.2-1.8-4.2-4.4c0-2.4,1.4-4.2,4.4-4.2c1.2,0,2.3,0.4,3.2,0.9l0-1.8c-0.7-0.3-1.9-0.6-3.3-0.6c-3.7,0-6.2,2.5-6.2,6
	c0,3.3,2.2,5.7,5.7,5.7c1.8,0,3.3-0.5,4.2-1v-5.8h-3.1V40.8z M243.4,41.7c0,0.8-0.2,1.5-0.6,2c-0.4,0.5-1.1,0.7-2.1,0.7
	c-0.9,0-1.6-0.3-2-0.7c-0.5-0.5-0.7-1.3-0.7-2.1v-7.2h-1.8v7.3c0,1.2,0.3,2.4,1.1,3.2c0.7,0.7,1.8,1.1,3.4,1.1
	c1.6,0,2.8-0.5,3.5-1.2c0.7-0.8,1.1-1.9,1.1-3.1v-7.3h-1.8V41.7z M179.7,40.8l1.3,0v3.3c-0.4,0.2-1.1,0.4-1.9,0.4
	c-2.6,0-4.2-1.8-4.2-4.4c0-2.4,1.4-4.3,4.4-4.3c1.2,0,2.3,0.4,3.2,0.9l0-1.8c-0.7-0.3-1.9-0.6-3.3-0.6c-3.7,0-6.2,2.5-6.2,6
	c0,3.3,2.2,5.7,5.7,5.7c1.8,0,3.3-0.5,4.2-1v-5.8h-3.1V40.8z M131.2,40.8l1.3,0v3.3c-0.4,0.2-1.1,0.4-1.9,0.4
	c-2.6,0-4.2-1.8-4.2-4.4c0-2.4,1.4-4.3,4.4-4.3c1.3,0,2.3,0.4,3.2,0.9l0-1.8c-0.7-0.3-1.9-0.6-3.3-0.6c-3.7,0-6.2,2.5-6.2,6
	c0,3.3,2.2,5.7,5.7,5.7c1.8,0,3.3-0.5,4.2-1v-5.8h-3.1V40.8z M144.8,36h3.1v9.9h1.8V36h2.9l0.5-1.6h-8.4V36z M154.7,45.9h1.8V34.4
	h-1.8V45.9z M168.4,41.3c0,0.6,0,1.1,0,1.6h0c-0.3-0.5-0.6-0.9-1.2-1.7l-5.2-6.8h-1.8v11.4h1.8v-7.2c0-0.6,0-1.1,0-1.5h0
	c0.3,0.5,0.6,0.9,1.1,1.6l5.4,7h1.7V34.4h-1.8V41.3z M139.4,36h3.7l0.6-1.6h-6.1v11.4h6.1v-1.6h-4.3V36z M143.1,40.8v-1.6h-2.6v1.6
	H143.1z M251.6,34.4h-2.9v11.4h1.8V36h1c1.5,0,2.3,0.8,2.3,2.3c0,1.4-0.8,2.2-2.3,2.1v1.4c2.8,0.1,4.1-1.4,4.1-3.5
	C255.7,36,254.4,34.4,251.6,34.4z M191.6,40.8v-1.6h-2.6v1.6H191.6z M188,36h3.7l0.6-1.6h-6.1v11.4h6.1v-1.6H188V36z"/>
</svg>
