<?xml version="1.0" encoding="utf-8"?>
<!-- Generator: Adobe Illustrator 18.1.1, SVG Export Plug-In . SVG Version: 6.00 Build 0)  -->
<svg version="1.1" id="Layer_1" xmlns="http://www.w3.org/2000/svg" xmlns:xlink="http://www.w3.org/1999/xlink" x="0px" y="0px"
	 viewBox="0 0 410.9 37" enable-background="new 0 0 410.9 37" xml:space="preserve">
<g>
	<path fill="#77787B" d="M25.6,20.3v10.6c-1.4,0.8-3.3,1.4-6.1,1.4c-8.4,0-13.4-5.8-13.4-13.9c0-7.5,4.5-13.6,13.6-13.6
		c4.2,0,7.5,1.4,10.3,2.8V1.9C27.8,1.1,24.2,0,19.8,0C7.8,0,0,7.8,0,18.9C0,29.2,7,37,18.4,37c5.3,0,10-1.7,13.1-3.1V15.6h-10v4.7
		H25.6z M104.4,0.3h-5.8v36.5h5.8V0.3z M58.7,5.3l1.7-5H40.9v36.5h19.5v-5H46.8V5.3H58.7z M50.1,20.3h8.4v-4.7h-8.4V20.3z M292.3,20
		c3.6-1.4,6.7-4.5,6.7-9.5c0-5.6-3.3-10.3-12.5-10.3h-8.9v36.5h5.8V5.3h3.1c4.7,0,6.7,2.8,6.7,5.8c0,3.6-2.8,6.4-6.4,6.4V22
		c1.4,0.6,3.6,4.7,9.8,14.8h6.7c-5.8-10-9.5-15.9-10.9-16.4V20z M324.1,0c-10.6,0-18.4,7.8-18.4,18.7c0,11.4,8.4,18.4,18.7,18.4
		c11.1,0,17.8-8.1,17.8-18.7C342.2,6.7,334.1,0,324.1,0 M324.1,32.3c-7.5,0-12.2-5.3-12.2-13.6c0-8.6,4.7-13.6,12.2-13.6
		c7.5,0,12,5.6,12,13.6C336.1,27,331.3,32.3,324.1,32.3 M262,20.3v10.6c-1.1,0.8-3.6,1.1-5.6,1.1c-8.9,0-13.9-5.6-13.9-13.6
		c0-7.5,4.5-13.4,13.9-13.4c3.9,0,7.5,1.1,10,2.5V1.9c-2.2-0.8-5.8-1.9-10.3-1.9c-12,0-19.8,8.1-19.8,18.9c0,10.3,7,18.1,18.4,18.1
		c5.3,0,10.3-1.7,13.1-3.1V15.6h-9.7v4.7H262z M373.1,23.4c0,5.8-3.1,8.9-8.6,8.9c-6.4,0-8.6-4.5-8.6-9.2V0.3H350v23.1
		c0,9.2,5,13.6,14.2,13.6c10.3,0,14.8-5.3,14.8-13.6V0.3h-5.8V23.4z M140,27.3l-3.9-5.6L119.7,0.3h-5.8v36.5h5.8V9.2l3.6,5.3
		l17,22.3h5.6V0.3H140V27.3z M388.7,0.3v36.5h5.6V5.3h3.3c4.7,0,7.2,2.8,7.2,7.2c0,4.7-2.5,7-7,6.7v4.5c8.9,0.6,13.1-4.5,13.1-11.4
		c0-7-4.2-12-13.4-12H388.7z M203.8,20.3h8.1v-4.7h-8.1V20.3z M212.2,5.3l1.9-5h-19.5v36.5h19.5v-5h-13.6V5.3H212.2z M66.3,5.3h10
		v31.5h5.9V5.3h9.2l1.7-5H66.3V5.3z"/>
	<path fill="#77787B" d="M179.1,20.3v10.6c-1.4,0.8-3.3,1.4-6.1,1.4c-8.4,0-13.4-5.8-13.4-13.9c0-7.5,4.5-13.6,13.6-13.6
		c4.2,0,7.5,1.4,10.3,2.8V1.9c-2.2-0.8-5.9-1.9-10.3-1.9c-12,0-19.8,7.8-19.8,18.9c0,10.3,7,18.1,18.4,18.1c5.3,0,10-1.7,13.1-3.1
		V15.6h-10v4.7H179.1z"/>
</g>
</svg>