<?xml version="1.0" encoding="utf-8"?>
<!-- Generator: Adobe Illustrator 18.1.1, SVG Export Plug-In . SVG Version: 6.00 Build 0)  -->
<svg version="1.1" id="Layer_1" xmlns="http://www.w3.org/2000/svg" xmlns:xlink="http://www.w3.org/1999/xlink" x="0px" y="0px"
	 viewBox="0 288.2 612 215.8" enable-background="new 0 288.2 612 215.8" xml:space="preserve">
<g>
	<path fill="#787878" d="M38,478.9v15.7c-2,1.1-4.9,2-9.1,2c-12.6,0-20-8.6-20-20.6c0-11.1,6.6-20.3,20.3-20.3c6.3,0,11.1,2,15.4,4
		v-8.3c-3.4-1.1-8.6-2.9-15.4-2.9C11.7,448.9,0,460.3,0,476.9c0,15.4,10.3,26.9,27.4,26.9c8,0,14.9-2.6,19.4-4.6v-27.4H32v7.1
		L38,478.9L38,478.9z M155.5,449.2h-8.6v54.3h8.6V449.2z M87.5,456.6l2.6-7.4H60.9v54.3H90V496H69.7v-39.4H87.5z M74.6,478.9h12.6
		v-7.1H74.6V478.9z M435.3,478.6c5.4-2,10-6.6,10-14c0-8.3-4.9-15.4-18.6-15.4h-13.1v54.3h8.6v-46.9h4.6c7.1,0,10,4.3,10,8.6
		c0,5.4-4.3,9.4-9.4,9.4v6.6c2,0.9,5.4,7.1,14.6,22h10c-8.6-14.9-14-23.7-16.3-24.6v0H435.3z M482.8,448.9
		c-15.7,0-27.4,11.7-27.4,27.7c0,16.9,12.6,27.4,27.7,27.4c16.6,0,26.6-12,26.6-27.7C509.7,458.6,497.7,448.9,482.8,448.9
		 M482.8,496.9c-11.1,0-18.3-8-18.3-20.3c0-12.9,7.1-20.3,18.3-20.3s17.7,8.3,17.7,20.3C500.5,488.9,493.4,496.9,482.8,496.9
		 M390.2,478.9v15.7c-1.7,1.1-5.4,1.7-8.3,1.7c-13.1,0-20.9-8.3-20.9-20.3c0-11.1,6.6-20,20.9-20c5.7,0,11.1,1.7,14.9,3.7v-8.3
		c-3.4-1.1-8.6-2.9-15.4-2.9c-17.7,0-29.4,12-29.4,28.3c0,15.4,10.3,26.9,27.4,26.9c8,0,15.4-2.6,19.4-4.6v-27.4h-14.6v7.1H390.2z
		 M555.7,483.5c0,8.6-4.6,13.1-12.9,13.1c-9.4,0-12.9-6.6-12.9-13.7v-33.7h-8.6v34.3c0,13.7,7.4,20.3,21.2,20.3c15.4,0,22-8,22-20.3
		v-34.3H556v34.3H555.7z M208.7,489.5l-5.7-8.3l-24.6-32h-8.6v54.3h8.6v-41.2l5.4,8l25.2,33.2h8.3v-54.3h-8.6V489.5z M578.8,449.2
		v54.3h8.3v-46.9h4.9c7.1,0,10.9,4.3,10.9,10.9c0,7.1-3.7,10.3-10.3,10v6.6c13.1,0.9,19.4-6.6,19.4-16.9c0-10.3-6.3-17.7-20-17.7
		h-13.1V449.2z M303.6,478.9h12v-7.1h-12V478.9z M315.9,456.6l2.9-7.4h-29.2v54.3h29.2V496h-20.3v-39.4H315.9z M98.6,456.6h14.9
		v46.9h8.6v-46.9h13.7l2.6-7.4H98.6V456.6z"/>
	<g>
		<path fill="#0046AD" d="M73.2,346.3v30.3c-4,2.3-9.4,4-17.4,4c-24,0-38.3-16.9-38.3-39.7c0-21.4,12.9-38.9,38.9-38.9
			c12,0,21.4,4,29.4,8v-16c-6.3-2.6-16.6-5.7-29.2-5.7C22.3,288.2,0,310.5,0,342.5c0,29.4,20,51.7,52.6,51.7
			c15.1,0,28.6-4.9,37.4-8.9v-52.6H61.5v13.4H73.2z"/>
		<path fill="#0046AD" d="M512,346.3v30.3c-4,2.3-9.4,4-17.4,4c-24,0-38.3-16.9-38.3-39.7c0-21.4,12.9-38.9,38.9-38.9
			c12,0,21.4,4,29.4,8v-16.3c-6.3-2.3-16.9-5.4-29.4-5.4c-34.3,0-56.6,22.3-56.6,54c0,29.4,20,51.7,52.6,51.7
			c15.1,0,28.6-4.9,37.4-8.9v-52.3h-28.6v13.4H512z"/>
		<rect x="281.8" y="289.1" fill="#0046AD" width="16.9" height="104.3"/>
		<polygon fill="#0046AD" points="168.1,303.4 172.7,289.1 116.9,289.1 116.9,393.4 172.7,393.4 172.7,379.1 133.8,379.1 
			133.8,303.4 		"/>
		<rect x="143.2" y="332.8" fill="#0046AD" width="24" height="13.4"/>
		<polygon fill="#0046AD" points="400.5,366.3 389.3,350.3 342.2,289.1 325.6,289.1 325.6,393.4 342.2,393.4 342.2,314.5 
			352.7,329.7 401.3,393.4 417.1,393.4 417.1,289.1 400.5,289.1 		"/>
		<rect x="582.6" y="332.8" fill="#0046AD" width="23.2" height="13.4"/>
		<polygon fill="#0046AD" points="606.6,303.4 612,289.1 556.5,289.1 556.5,393.4 612,393.4 612,379.1 573.1,379.1 573.1,303.4 		
			"/>
		<polygon fill="#0046AD" points="189.5,303.4 218.1,303.4 218.1,393.4 235,393.4 235,303.4 261,303.4 265.8,289.1 189.5,289.1 		
			"/>
	</g>
	<path fill="#787878" d="M266.7,478.9v15.7c-2,1.1-4.9,2-9.1,2c-12.6,0-20-8.6-20-20.6c0-11.1,6.6-20.3,20.3-20.3
		c6.3,0,11.1,2,15.4,4v-8.3c-3.4-1.1-8.6-2.9-15.4-2.9c-17.4,0.3-29.2,11.7-29.2,28.3c0,15.4,10.3,26.9,27.4,26.9
		c8,0,14.9-2.6,19.4-4.6v-27.4h-14.9v7.1L266.7,478.9L266.7,478.9z"/>
</g>
</svg>
