<?xml version="1.0" encoding="utf-8"?>
<!-- Generator: Adobe Illustrator 18.1.1, SVG Export Plug-In . SVG Version: 6.00 Build 0)  -->
<svg version="1.1" id="Layer_1" xmlns="http://www.w3.org/2000/svg" xmlns:xlink="http://www.w3.org/1999/xlink" x="0px" y="0px"
	 viewBox="0 0 283.5 95.7" enable-background="new 0 0 283.5 95.7" xml:space="preserve">
<g>
	<polygon fill="#77787B" points="30.8,75 38.5,75 39.6,71.8 27.1,71.8 27.1,95.3 39.7,95.3 39.7,92.1 30.8,92.1 30.8,75 	"/>
	<polygon fill="#77787B" points="33.1,84.9 38.5,84.9 38.5,81.7 33.1,81.7 33.1,84.9 	"/>
	<polygon fill="#77787B" points="62.1,71.8 44,71.8 44,75 50.8,75 50.8,95.3 54.6,95.3 54.6,75 61.1,75 62.1,71.8 	"/>
	<polygon fill="#77787B" points="70.7,95.3 70.7,71.8 67,71.8 67,95.3 70.7,95.3 	"/>
	<path fill-rule="evenodd" clip-rule="evenodd" fill="#77787B" d="M98.4,95.3V71.8h-3.7V86c0,1.1,0,2.3,0.1,3.3h-0.1
		c-0.5-1-1.2-1.9-2.5-3.5L81.6,71.8h-3.8v23.5h3.7V80.6c0-1.1,0-2.3-0.1-3.1h0.1c0.6,1,1.2,1.9,2.4,3.4l11.1,14.5H98.4L98.4,95.3z"
		/>
	<path fill-rule="evenodd" clip-rule="evenodd" fill="#77787B" d="M206.4,83.8c0,3.7,1.4,6.9,3.7,9c2.1,1.9,4.9,2.9,8.2,2.9
		c3.5,0,6.4-1.2,8.5-3.3c2.2-2.1,3.4-5.2,3.4-8.8c0-3.3-1-6.2-3-8.3c-2.1-2.3-5.2-3.7-8.9-3.7c-3.5,0-6.4,1.3-8.5,3.4
		C207.6,77.2,206.4,80.3,206.4,83.8L206.4,83.8z M226.2,83.7c0,5.5-3.2,8.8-7.9,8.8c-4.7,0-7.9-3.4-7.9-8.8c0-5.5,3.2-8.8,7.9-8.8
		C223.2,74.9,226.2,78.4,226.2,83.7L226.2,83.7z"/>
	<path fill="#77787B" d="M254.1,86.9v-15h-3.7v15c0,1.7-0.4,3.1-1.3,4.1c-0.9,1-2.3,1.5-4.4,1.5c-1.9,0-3.2-0.6-4.1-1.5
		c-1-1.1-1.5-2.7-1.5-4.4V71.8h-3.7v15c0,2.5,0.5,5,2.3,6.7c1.5,1.4,3.7,2.2,7,2.2c3.4,0,5.7-0.9,7.3-2.5
		C253.4,91.6,254.1,89.4,254.1,86.9L254.1,86.9z"/>
	<path fill="#77787B" d="M20.4,93.6c-1.9,1-5,2.1-8.7,2.1C4.6,95.7,0,90.7,0,83.9c0-7.1,5.1-12.3,12.8-12.3c3,0,5.3,0.7,6.8,1.3
		l0,3.6c-1.7-0.9-4-1.7-6.5-1.7c-6.1,0-9,3.9-9,8.7c0,5.3,3.3,9,8.7,9c1.7,0,3.1-0.3,4-0.8v-6.8h-2.2l0-3.2h5.9V93.6L20.4,93.6z"/>
	<path fill="#77787B" d="M180.5,93.6c-1.9,1-5,2.1-8.7,2.1c-7.2,0-11.8-5-11.8-11.8c0-7.1,5.1-12.3,12.8-12.3c3,0,5.3,0.7,6.8,1.3
		l0,3.6c-1.7-0.9-4-1.7-6.5-1.7c-6.1,0-9,3.9-9,8.7c0,5.3,3.3,9,8.7,9c1.7,0,3.1-0.3,4-0.8v-6.8h-2.2l0-3.2h5.9V93.6L180.5,93.6z"/>
	<polygon fill="#77787B" points="135.3,75 143,75 144.1,71.8 131.5,71.8 131.5,95.3 144.1,95.3 144.1,92.1 135.3,92.1 135.3,75 	"/>
	<polygon fill="#77787B" points="137.6,84.9 142.9,84.9 142.9,81.7 137.6,81.7 137.6,84.9 	"/>
	<path fill="#77787B" d="M190.9,75.1h2.1c3,0,4.3,1.7,4.3,3.7c0,2.2-1.8,4.1-4.2,4.1v2.9c0.9,0.2,2.7,3.5,6.4,9.5h4.4
		c-3.7-6-6.2-10.2-7.1-10.7v0c2.3-0.9,4.4-3,4.4-6.2c0-3.6-2.2-6.6-8.1-6.6h-5.9v23.5h3.7V75.1L190.9,75.1z"/>
	<path fill="#77787B" d="M264.6,95.4l0-20.3h1.5c3.2,0,4.8,1.8,4.8,4.3c0,2.6-1.2,4.3-4,4.5l0,3c5.7-0.4,7.9-4.3,7.9-7.7
		c0-4.8-3.2-7.5-8.3-7.5h-5.6v23.5H264.6L264.6,95.4z"/>
	<path fill="#77787B" d="M124.6,93.6c-1.9,1-5,2.1-8.7,2.1c-7.2,0-11.8-5-11.8-11.8c0-7.1,5.1-12.3,12.8-12.3c3,0,5.3,0.7,6.8,1.3
		l0,3.6c-1.7-0.9-4-1.7-6.5-1.7c-6.1,0-9,3.9-9,8.7c0,5.3,3.3,9,8.7,9c1.7,0,3.1-0.3,4-0.8v-6.8h-2.2l0-3.2h5.9V93.6L124.6,93.6z"/>
	<path fill="#00529C" d="M123.8,48.9c-4.6-0.6-9.1-2.9-12.1-5.7c-4.9-4.5-7.4-10.5-7.5-18.2c-0.1-7.1,2.5-13.6,6.9-18.1
		c4.3-4.4,10.2-7,17.3-7c7.6,0,13.9,2.8,18.2,7.5c3.9,4.4,6,10.3,6,17c0,7.2-2.5,13.5-6.9,17.9c-3,3-6.4,5.1-12.7,6.5v6.9h-4.6V35.2
		h4.6v7.1c7.9-2.1,11.7-9.1,11.7-17.6c0-10.8-6.4-18.3-16.4-18.3c-9.7,0-16.3,7.1-16.3,18.3c0,8.6,4.4,15.9,11.7,17.6L123.8,48.9
		L123.8,48.9z"/>
	<path fill="#00529C" d="M73.7,36.4l2.3-6.3h7.8c0,0-5.8-16.8-6-18.3h-0.1c-0.4,1.6-13.2,36.4-13.2,36.4h-7.4l18.1-47h5.2l18.5,47
		h-8l-4.7-11.9L73.7,36.4L73.7,36.4z"/>
	<path fill="#00529C" d="M39.1,48.3V18.4c0-1.7,0-3,0.1-5h-0.1c-0.6,1.7-1.9,3.6-2.6,4.8L25.8,34.9h-3.9L10.3,18
		c-0.8-1.2-1.8-2.6-2.7-4.6H7.5c0.2,2.1,0.2,3.3,0.2,4.8v30.1H0.3v-47h7.1l13.6,20c1.3,1.9,2.1,3.3,2.9,4.7h0.1
		c0.6-1.4,1.4-2.8,2.7-4.8L39.3,1.4h7.2v47H39.1L39.1,48.3z"/>
	<path fill="#00529C" d="M195.4,44c-3.1,3.2-7.8,5.1-14.5,5.1c-6.4,0-11-1.6-13.9-4.5c-3.5-3.4-4.6-8.4-4.6-13.3V1.4h7.4v29.5
		c0,3.3,0.9,6.5,3,8.7c1.8,1.9,4.5,3.1,8.2,3.1c4.1,0,7-1.1,8.8-3.1c1.9-2,2.6-4.9,2.6-8.3V1.4h7.5v30
		C199.9,36.3,198.5,40.8,195.4,44L195.4,44z"/>
	<polygon fill="#00529C" points="281.4,7.8 268.5,7.8 268.5,48.3 260.9,48.3 260.9,7.8 247.3,7.8 247.3,1.4 283.5,1.4 281.4,7.8 	
		"/>
	<polygon fill="#00529C" points="220.1,41.9 237.7,41.9 237.7,48.3 212.6,48.3 212.6,1.4 237.7,1.4 235.4,7.8 220.1,7.8 220.1,41.9 
			"/>
	<polygon fill="#00529C" points="224.7,21.1 235.3,21.1 235.3,27.5 224.7,27.5 224.7,21.1 	"/>
</g>
</svg>
